# Blender v2.79 (sub 0) OBJ File: 'blenderfile.blend'
# www.blender.org
mtllib blenderfile1.mtl
o Cylinder
v 1.900470 2.777519 -1.000000
v 1.900470 2.777519 -3.000000
v 2.095561 2.796734 -1.000000
v 2.095560 2.796734 -3.000000
v 2.283154 2.853640 -1.000000
v 2.283154 2.853640 -3.000000
v 2.456040 2.946049 -1.000000
v 2.456040 2.946049 -3.000000
v 2.607577 3.070412 -1.000000
v 2.607577 3.070412 -3.000000
v 2.731940 3.221949 -1.000000
v 2.731940 3.221949 -3.000000
v 2.824350 3.394836 -1.000000
v 2.824349 3.394836 -3.000000
v 2.881255 3.582429 -1.000000
v 2.881255 3.582429 -3.000000
v 2.900470 3.777519 -1.000000
v 2.900470 3.777519 -3.000000
v 2.881255 3.972609 -1.000000
v 2.881255 3.972609 -3.000000
v 2.824350 4.160203 -1.000000
v 2.824349 4.160203 -3.000000
v 2.731940 4.333089 -1.000000
v 2.731940 4.333089 -3.000000
v 2.607577 4.484626 -1.000000
v 2.607577 4.484626 -3.000000
v 2.456040 4.608989 -1.000000
v 2.456040 4.608989 -3.000000
v 2.283153 4.701399 -1.000000
v 2.283153 4.701399 -3.000000
v 2.095560 4.758304 -1.000000
v 2.095560 4.758305 -3.000000
v 1.900470 4.777519 -1.000000
v 1.900470 4.777519 -3.000000
v 1.705379 4.758304 -1.000000
v 1.705379 4.758304 -3.000000
v 1.517786 4.701398 -1.000000
v 1.517786 4.701398 -3.000000
v 1.344899 4.608988 -1.000000
v 1.344899 4.608988 -3.000000
v 1.193363 4.484625 -1.000000
v 1.193363 4.484625 -3.000000
v 1.069000 4.333088 -1.000000
v 1.069000 4.333089 -3.000000
v 0.976590 4.160202 -1.000000
v 0.976590 4.160202 -3.000000
v 0.919685 3.972608 -1.000000
v 0.919685 3.972608 -3.000000
v 0.900470 3.777518 -1.000000
v 0.900470 3.777518 -3.000000
v 0.919685 3.582428 -1.000000
v 0.919685 3.582428 -3.000000
v 0.976591 3.394835 -1.000000
v 0.976591 3.394835 -3.000000
v 1.069001 3.221948 -1.000000
v 1.069001 3.221948 -3.000000
v 1.193364 3.070411 -1.000000
v 1.193364 3.070411 -3.000000
v 1.344901 2.946048 -1.000000
v 1.344901 2.946049 -3.000000
v 1.517788 2.853639 -1.000000
v 1.517788 2.853639 -3.000000
v 1.705381 2.796733 -1.000000
v 1.705381 2.796733 -3.000000
vn 0.0980 -0.9952 0.0000
vn 0.2903 -0.9569 -0.0000
vn 0.4714 -0.8819 0.0000
vn 0.6344 -0.7730 0.0000
vn 0.7730 -0.6344 0.0000
vn 0.8819 -0.4714 0.0000
vn 0.9569 -0.2903 -0.0000
vn 0.9952 -0.0980 -0.0000
vn 0.9952 0.0980 -0.0000
vn 0.9569 0.2903 -0.0000
vn 0.8819 0.4714 -0.0000
vn 0.7730 0.6344 -0.0000
vn 0.6344 0.7730 0.0000
vn 0.4714 0.8819 0.0000
vn 0.2903 0.9569 0.0000
vn 0.0980 0.9952 0.0000
vn -0.0980 0.9952 0.0000
vn -0.2903 0.9569 0.0000
vn -0.4714 0.8819 -0.0000
vn -0.6344 0.7730 0.0000
vn -0.7730 0.6344 0.0000
vn -0.8819 0.4714 0.0000
vn -0.9569 0.2903 0.0000
vn -0.9952 0.0980 0.0000
vn -0.9952 -0.0980 0.0000
vn -0.9569 -0.2903 0.0000
vn -0.8819 -0.4714 0.0000
vn -0.7730 -0.6344 0.0000
vn -0.6344 -0.7730 0.0000
vn -0.4714 -0.8819 0.0000
vn 0.0000 0.0000 -1.0000
vn -0.2903 -0.9569 -0.0000
vn -0.0980 -0.9952 0.0000
vn 0.0000 -0.0000 1.0000
usemtl None
s off
f 2//1 3//1 1//1
f 4//2 5//2 3//2
f 6//3 7//3 5//3
f 8//4 9//4 7//4
f 10//5 11//5 9//5
f 12//6 13//6 11//6
f 14//7 15//7 13//7
f 16//8 17//8 15//8
f 18//9 19//9 17//9
f 20//10 21//10 19//10
f 22//11 23//11 21//11
f 24//12 25//12 23//12
f 26//13 27//13 25//13
f 28//14 29//14 27//14
f 30//15 31//15 29//15
f 32//16 33//16 31//16
f 34//17 35//17 33//17
f 36//18 37//18 35//18
f 38//19 39//19 37//19
f 40//20 41//20 39//20
f 42//21 43//21 41//21
f 44//22 45//22 43//22
f 46//23 47//23 45//23
f 48//24 49//24 47//24
f 50//25 51//25 49//25
f 52//26 53//26 51//26
f 54//27 55//27 53//27
f 56//28 57//28 55//28
f 58//29 59//29 57//29
f 60//30 61//30 59//30
f 54//31 38//31 22//31
f 62//32 63//32 61//32
f 64//33 1//33 63//33
f 15//34 31//34 47//34
f 2//1 4//1 3//1
f 4//2 6//2 5//2
f 6//3 8//3 7//3
f 8//4 10//4 9//4
f 10//5 12//5 11//5
f 12//6 14//6 13//6
f 14//7 16//7 15//7
f 16//8 18//8 17//8
f 18//9 20//9 19//9
f 20//10 22//10 21//10
f 22//11 24//11 23//11
f 24//12 26//12 25//12
f 26//13 28//13 27//13
f 28//14 30//14 29//14
f 30//15 32//15 31//15
f 32//16 34//16 33//16
f 34//17 36//17 35//17
f 36//18 38//18 37//18
f 38//19 40//19 39//19
f 40//20 42//20 41//20
f 42//21 44//21 43//21
f 44//22 46//22 45//22
f 46//23 48//23 47//23
f 48//24 50//24 49//24
f 50//25 52//25 51//25
f 52//26 54//26 53//26
f 54//27 56//27 55//27
f 56//28 58//28 57//28
f 58//29 60//29 59//29
f 60//30 62//30 61//30
f 6//31 4//31 2//31
f 2//31 64//31 6//31
f 64//31 62//31 6//31
f 62//31 60//31 58//31
f 58//31 56//31 54//31
f 54//31 52//31 50//31
f 50//31 48//31 54//31
f 48//31 46//31 54//31
f 46//31 44//31 38//31
f 44//31 42//31 38//31
f 42//31 40//31 38//31
f 38//31 36//31 34//31
f 34//31 32//31 30//31
f 30//31 28//31 26//31
f 26//31 24//31 22//31
f 22//31 20//31 18//31
f 18//31 16//31 22//31
f 16//31 14//31 22//31
f 14//31 12//31 10//31
f 10//31 8//31 6//31
f 62//31 58//31 6//31
f 58//31 54//31 6//31
f 38//31 34//31 22//31
f 34//31 30//31 22//31
f 30//31 26//31 22//31
f 14//31 10//31 22//31
f 10//31 6//31 22//31
f 54//31 46//31 38//31
f 6//31 54//31 22//31
f 62//32 64//32 63//32
f 64//33 2//33 1//33
f 63//34 1//34 3//34
f 3//34 5//34 7//34
f 7//34 9//34 11//34
f 11//34 13//34 7//34
f 13//34 15//34 7//34
f 15//34 17//34 19//34
f 19//34 21//34 15//34
f 21//34 23//34 15//34
f 23//34 25//34 31//34
f 25//34 27//34 31//34
f 27//34 29//34 31//34
f 31//34 33//34 35//34
f 35//34 37//34 39//34
f 39//34 41//34 43//34
f 43//34 45//34 47//34
f 47//34 49//34 51//34
f 51//34 53//34 55//34
f 55//34 57//34 63//34
f 57//34 59//34 63//34
f 59//34 61//34 63//34
f 63//34 3//34 7//34
f 31//34 35//34 47//34
f 35//34 39//34 47//34
f 39//34 43//34 47//34
f 47//34 51//34 63//34
f 51//34 55//34 63//34
f 63//34 7//34 15//34
f 15//34 23//34 31//34
f 63//34 15//34 47//34
o Cube_Cube.001
v 0.500000 1.500000 0.000000
v 0.500000 1.500000 -2.000000
v 0.500000 0.500000 0.000000
v 0.500000 0.500000 -2.000000
v 1.500000 1.500000 0.000000
v 1.500000 1.500000 -2.000000
v 1.500000 0.500000 -0.000000
v 1.500000 0.500000 -2.000000
vn -1.0000 -0.0000 0.0000
vn 0.0000 -1.0000 -0.0000
vn 1.0000 0.0000 -0.0000
vn 0.0000 1.0000 0.0000
vn 0.0000 -0.0000 1.0000
vn 0.0000 0.0000 -1.0000
usemtl None
s off
f 66//35 67//35 65//35
f 68//36 71//36 67//36
f 72//37 69//37 71//37
f 70//38 65//38 69//38
f 71//39 65//39 67//39
f 68//40 70//40 72//40
f 66//35 68//35 67//35
f 68//36 72//36 71//36
f 72//37 70//37 69//37
f 70//38 66//38 65//38
f 71//39 69//39 65//39
f 68//40 66//40 70//40
o Icosphere.001
v -1.000000 0.500000 0.000000
v -0.276393 1.025725 -0.552781
v -1.276388 1.350649 -0.552780
v -1.894426 0.500000 -0.552784
v -1.276388 -0.350649 -0.552780
v -0.276393 -0.025725 -0.552781
v -0.723612 1.350649 -1.447220
v -1.723607 1.025725 -1.447219
v -1.723607 -0.025725 -1.447219
v -0.723612 -0.350649 -1.447220
v -0.105574 0.500000 -1.447216
v -1.000000 0.500000 -2.000000
v -1.162456 0.999995 -0.149346
v -0.574677 0.809011 -0.149346
v -0.737131 1.309012 -0.474262
v -0.149352 0.500000 -0.474264
v -0.574677 0.190989 -0.149346
v -1.525730 0.500000 -0.149348
v -1.688189 0.999997 -0.474264
v -1.162455 0.000005 -0.149346
v -1.688189 0.000003 -0.474264
v -0.737131 -0.309012 -0.474262
v -0.048942 0.809013 -1.000000
v -0.048942 0.190987 -1.000000
v -1.000000 1.500000 -1.000000
v -0.412214 1.309017 -1.000000
v -1.951058 0.809013 -1.000000
v -1.587786 1.309017 -1.000000
v -1.587785 -0.309017 -1.000000
v -1.951058 0.190987 -1.000000
v -0.412214 -0.309017 -1.000000
v -1.000000 -0.500000 -1.000000
v -0.311811 0.999997 -1.525736
v -1.262869 1.309012 -1.525738
v -1.850648 0.500000 -1.525736
v -1.262869 -0.309012 -1.525738
v -0.311811 0.000003 -1.525736
v -0.837545 0.999995 -1.850654
v -0.474270 0.500000 -1.850652
v -1.425323 0.809011 -1.850654
v -1.425323 0.190989 -1.850654
v -0.837544 0.000005 -1.850654
vn 0.1024 0.3151 0.9435
vn 0.7002 0.2680 0.6617
vn -0.2680 0.1947 0.9435
vn -0.2680 -0.1947 0.9435
vn 0.1024 -0.3151 0.9435
vn 0.9050 0.2680 0.3304
vn 0.0247 0.9435 0.3304
vn -0.8897 0.3151 0.3304
vn -0.5746 -0.7488 0.3304
vn 0.5346 -0.7779 0.3304
vn 0.8026 0.5831 0.1256
vn -0.3066 0.9435 0.1256
vn -0.9921 0.0000 0.1256
vn -0.3066 -0.9435 0.1256
vn 0.8026 -0.5831 0.1256
vn 0.4089 0.6284 -0.6617
vn -0.4713 0.5831 -0.6617
vn -0.7002 -0.2680 -0.6617
vn 0.0385 -0.7488 -0.6617
vn 0.7240 -0.1947 -0.6617
vn 0.2680 -0.1947 -0.9435
vn 0.4911 -0.3568 -0.7947
vn 0.4089 -0.6284 -0.6617
vn -0.1024 -0.3151 -0.9435
vn -0.1876 -0.5773 -0.7947
vn -0.4713 -0.5831 -0.6617
vn -0.3313 0.0000 -0.9435
vn -0.6071 0.0000 -0.7947
vn -0.7002 0.2680 -0.6617
vn -0.1024 0.3151 -0.9435
vn -0.1876 0.5773 -0.7947
vn 0.0385 0.7488 -0.6617
vn 0.2680 0.1947 -0.9435
vn 0.4911 0.3568 -0.7947
vn 0.7240 0.1947 -0.6617
vn 0.8897 -0.3151 -0.3304
vn 0.7947 -0.5773 -0.1876
vn 0.5746 -0.7488 -0.3304
vn -0.0247 -0.9435 -0.3304
vn -0.3035 -0.9342 -0.1876
vn -0.5346 -0.7779 -0.3304
vn -0.9050 -0.2680 -0.3304
vn -0.9822 0.0000 -0.1876
vn -0.9050 0.2680 -0.3304
vn -0.5346 0.7779 -0.3304
vn -0.3035 0.9342 -0.1876
vn -0.0247 0.9435 -0.3304
vn 0.5746 0.7488 -0.3304
vn 0.7947 0.5773 -0.1876
vn 0.8897 0.3151 -0.3304
vn 0.3066 -0.9435 -0.1256
vn 0.3035 -0.9342 0.1876
vn 0.0247 -0.9435 0.3304
vn -0.8026 -0.5831 -0.1256
vn -0.7947 -0.5773 0.1876
vn -0.8897 -0.3151 0.3304
vn -0.8026 0.5831 -0.1256
vn -0.7947 0.5773 0.1876
vn -0.5746 0.7488 0.3304
vn 0.3066 0.9435 -0.1256
vn 0.3035 0.9342 0.1876
vn 0.5346 0.7779 0.3304
vn 0.9921 0.0000 -0.1256
vn 0.9822 0.0000 0.1876
vn 0.9050 -0.2680 0.3304
vn 0.4713 -0.5831 0.6617
vn 0.1876 -0.5773 0.7947
vn -0.0385 -0.7488 0.6617
vn -0.4089 -0.6284 0.6617
vn -0.4911 -0.3568 0.7947
vn -0.7240 -0.1947 0.6617
vn -0.7240 0.1947 0.6617
vn -0.4911 0.3568 0.7947
vn -0.4089 0.6284 0.6617
vn 0.7002 -0.2680 0.6617
vn 0.6071 -0.0000 0.7947
vn 0.3313 -0.0000 0.9435
vn -0.0385 0.7488 0.6617
vn 0.1876 0.5773 0.7947
vn 0.4713 0.5831 0.6617
usemtl None
s off
f 73//41 86//41 85//41
f 74//42 86//42 88//42
f 73//43 85//43 90//43
f 73//44 90//44 92//44
f 73//45 92//45 89//45
f 74//46 88//46 95//46
f 75//47 87//47 97//47
f 76//48 91//48 99//48
f 77//49 93//49 101//49
f 78//50 94//50 103//50
f 74//51 95//51 98//51
f 75//52 97//52 100//52
f 76//53 99//53 102//53
f 77//54 101//54 104//54
f 78//55 103//55 96//55
f 79//56 105//56 110//56
f 80//57 106//57 112//57
f 81//58 107//58 113//58
f 82//59 108//59 114//59
f 83//60 109//60 111//60
f 111//61 114//61 84//61
f 111//62 109//62 114//62
f 109//63 82//63 114//63
f 114//64 113//64 84//64
f 114//65 108//65 113//65
f 108//66 81//66 113//66
f 113//67 112//67 84//67
f 113//68 107//68 112//68
f 107//69 80//69 112//69
f 112//70 110//70 84//70
f 112//71 106//71 110//71
f 106//72 79//72 110//72
f 110//73 111//73 84//73
f 110//74 105//74 111//74
f 105//75 83//75 111//75
f 96//76 109//76 83//76
f 96//77 103//77 109//77
f 103//78 82//78 109//78
f 104//79 108//79 82//79
f 104//80 101//80 108//80
f 101//81 81//81 108//81
f 102//82 107//82 81//82
f 102//83 99//83 107//83
f 99//84 80//84 107//84
f 100//85 106//85 80//85
f 100//86 97//86 106//86
f 97//87 79//87 106//87
f 98//88 105//88 79//88
f 98//89 95//89 105//89
f 95//90 83//90 105//90
f 103//91 104//91 82//91
f 103//92 94//92 104//92
f 94//93 77//93 104//93
f 101//94 102//94 81//94
f 101//95 93//95 102//95
f 93//96 76//96 102//96
f 99//97 100//97 80//97
f 99//98 91//98 100//98
f 91//99 75//99 100//99
f 97//100 98//100 79//100
f 97//101 87//101 98//101
f 87//102 74//102 98//102
f 95//103 96//103 83//103
f 95//104 88//104 96//104
f 88//105 78//105 96//105
f 89//106 94//106 78//106
f 89//107 92//107 94//107
f 92//108 77//108 94//108
f 92//109 93//109 77//109
f 92//110 90//110 93//110
f 90//111 76//111 93//111
f 90//112 91//112 76//112
f 90//113 85//113 91//113
f 85//114 75//114 91//114
f 88//115 89//115 78//115
f 88//116 86//116 89//116
f 86//117 73//117 89//117
f 85//118 87//118 75//118
f 85//119 86//119 87//119
f 86//120 74//120 87//120
o Icosphere
v 1.500000 -0.500000 0.000000
v 2.223607 0.025725 -0.552781
v 1.223612 0.350649 -0.552780
v 0.605574 -0.500000 -0.552784
v 1.223612 -1.350649 -0.552780
v 2.223608 -1.025725 -0.552781
v 1.776388 0.350649 -1.447220
v 0.776393 0.025725 -1.447219
v 0.776393 -1.025725 -1.447219
v 1.776388 -1.350649 -1.447220
v 2.394426 -0.500000 -1.447216
v 1.500000 -0.500000 -2.000000
v 1.337544 -0.000005 -0.149346
v 1.925323 -0.190989 -0.149346
v 1.762869 0.309012 -0.474262
v 2.350648 -0.500000 -0.474264
v 1.925323 -0.809011 -0.149346
v 0.974270 -0.500000 -0.149348
v 0.811811 -0.000003 -0.474264
v 1.337545 -0.999995 -0.149346
v 0.811811 -0.999997 -0.474264
v 1.762869 -1.309012 -0.474262
v 2.451058 -0.190987 -1.000000
v 2.451058 -0.809013 -1.000000
v 1.500000 0.500000 -1.000000
v 2.087785 0.309017 -1.000000
v 0.548942 -0.190987 -1.000000
v 0.912214 0.309017 -1.000000
v 0.912214 -1.309017 -1.000000
v 0.548942 -0.809013 -1.000000
v 2.087786 -1.309017 -1.000000
v 1.500000 -1.500000 -1.000000
v 2.188189 -0.000003 -1.525736
v 1.237131 0.309012 -1.525738
v 0.649352 -0.500000 -1.525736
v 1.237131 -1.309012 -1.525738
v 2.188190 -0.999997 -1.525736
v 1.662455 -0.000005 -1.850654
v 2.025730 -0.500000 -1.850652
v 1.074677 -0.190989 -1.850654
v 1.074677 -0.809011 -1.850654
v 1.662456 -0.999995 -1.850654
vn 0.1024 0.3151 0.9435
vn 0.7002 0.2680 0.6617
vn -0.2680 0.1947 0.9435
vn -0.2680 -0.1947 0.9435
vn 0.1024 -0.3151 0.9435
vn 0.9050 0.2680 0.3304
vn 0.0247 0.9435 0.3304
vn -0.8897 0.3151 0.3304
vn -0.5746 -0.7488 0.3304
vn 0.5346 -0.7779 0.3304
vn 0.8026 0.5831 0.1256
vn -0.3066 0.9435 0.1256
vn -0.9921 -0.0000 0.1256
vn -0.3066 -0.9435 0.1256
vn 0.8026 -0.5831 0.1256
vn 0.4089 0.6284 -0.6617
vn -0.4713 0.5831 -0.6617
vn -0.7002 -0.2680 -0.6617
vn 0.0385 -0.7488 -0.6617
vn 0.7240 -0.1947 -0.6617
vn 0.2680 -0.1947 -0.9435
vn 0.4911 -0.3568 -0.7947
vn 0.4089 -0.6284 -0.6617
vn -0.1024 -0.3151 -0.9435
vn -0.1876 -0.5773 -0.7947
vn -0.4713 -0.5831 -0.6617
vn -0.3313 0.0000 -0.9435
vn -0.6071 0.0000 -0.7947
vn -0.7002 0.2680 -0.6617
vn -0.1024 0.3151 -0.9435
vn -0.1876 0.5773 -0.7947
vn 0.0385 0.7488 -0.6617
vn 0.2680 0.1947 -0.9435
vn 0.4911 0.3568 -0.7947
vn 0.7240 0.1947 -0.6617
vn 0.8897 -0.3151 -0.3304
vn 0.7947 -0.5773 -0.1876
vn 0.5746 -0.7488 -0.3304
vn -0.0247 -0.9435 -0.3304
vn -0.3035 -0.9342 -0.1876
vn -0.5346 -0.7779 -0.3304
vn -0.9050 -0.2680 -0.3304
vn -0.9822 0.0000 -0.1876
vn -0.9050 0.2680 -0.3304
vn -0.5346 0.7779 -0.3304
vn -0.3035 0.9342 -0.1876
vn -0.0247 0.9435 -0.3304
vn 0.5746 0.7488 -0.3304
vn 0.7947 0.5773 -0.1876
vn 0.8897 0.3151 -0.3304
vn 0.3066 -0.9435 -0.1256
vn 0.3035 -0.9342 0.1876
vn 0.0247 -0.9435 0.3304
vn -0.8026 -0.5831 -0.1256
vn -0.7947 -0.5773 0.1876
vn -0.8897 -0.3151 0.3304
vn -0.8026 0.5831 -0.1256
vn -0.7947 0.5773 0.1876
vn -0.5746 0.7488 0.3304
vn 0.3066 0.9435 -0.1256
vn 0.3035 0.9342 0.1876
vn 0.5346 0.7779 0.3304
vn 0.9921 0.0000 -0.1256
vn 0.9822 0.0000 0.1876
vn 0.9050 -0.2680 0.3304
vn 0.4713 -0.5831 0.6617
vn 0.1876 -0.5773 0.7947
vn -0.0385 -0.7488 0.6617
vn -0.4089 -0.6284 0.6617
vn -0.4911 -0.3568 0.7947
vn -0.7240 -0.1947 0.6617
vn -0.7240 0.1947 0.6617
vn -0.4911 0.3568 0.7947
vn -0.4089 0.6284 0.6617
vn 0.7002 -0.2680 0.6617
vn 0.6071 -0.0000 0.7947
vn 0.3313 0.0000 0.9435
vn -0.0385 0.7488 0.6617
vn 0.1876 0.5773 0.7947
vn 0.4713 0.5831 0.6617
usemtl None
s off
f 115//121 128//121 127//121
f 116//122 128//122 130//122
f 115//123 127//123 132//123
f 115//124 132//124 134//124
f 115//125 134//125 131//125
f 116//126 130//126 137//126
f 117//127 129//127 139//127
f 118//128 133//128 141//128
f 119//129 135//129 143//129
f 120//130 136//130 145//130
f 116//131 137//131 140//131
f 117//132 139//132 142//132
f 118//133 141//133 144//133
f 119//134 143//134 146//134
f 120//135 145//135 138//135
f 121//136 147//136 152//136
f 122//137 148//137 154//137
f 123//138 149//138 155//138
f 124//139 150//139 156//139
f 125//140 151//140 153//140
f 153//141 156//141 126//141
f 153//142 151//142 156//142
f 151//143 124//143 156//143
f 156//144 155//144 126//144
f 156//145 150//145 155//145
f 150//146 123//146 155//146
f 155//147 154//147 126//147
f 155//148 149//148 154//148
f 149//149 122//149 154//149
f 154//150 152//150 126//150
f 154//151 148//151 152//151
f 148//152 121//152 152//152
f 152//153 153//153 126//153
f 152//154 147//154 153//154
f 147//155 125//155 153//155
f 138//156 151//156 125//156
f 138//157 145//157 151//157
f 145//158 124//158 151//158
f 146//159 150//159 124//159
f 146//160 143//160 150//160
f 143//161 123//161 150//161
f 144//162 149//162 123//162
f 144//163 141//163 149//163
f 141//164 122//164 149//164
f 142//165 148//165 122//165
f 142//166 139//166 148//166
f 139//167 121//167 148//167
f 140//168 147//168 121//168
f 140//169 137//169 147//169
f 137//170 125//170 147//170
f 145//171 146//171 124//171
f 145//172 136//172 146//172
f 136//173 119//173 146//173
f 143//174 144//174 123//174
f 143//175 135//175 144//175
f 135//176 118//176 144//176
f 141//177 142//177 122//177
f 141//178 133//178 142//178
f 133//179 117//179 142//179
f 139//180 140//180 121//180
f 139//181 129//181 140//181
f 129//182 116//182 140//182
f 137//183 138//183 125//183
f 137//184 130//184 138//184
f 130//185 120//185 138//185
f 131//186 136//186 120//186
f 131//187 134//187 136//187
f 134//188 119//188 136//188
f 134//189 135//189 119//189
f 134//190 132//190 135//190
f 132//191 118//191 135//191
f 132//192 133//192 118//192
f 132//193 127//193 133//193
f 127//194 117//194 133//194
f 130//195 131//195 120//195
f 130//196 128//196 131//196
f 128//197 115//197 131//197
f 127//198 129//198 117//198
f 127//199 128//199 129//199
f 128//200 116//200 129//200
o Plane
v -6.600000 6.599999 0.000001
v 6.599999 6.600000 -0.000000
v -6.599999 -6.600000 0.000000
v 6.600000 -6.599999 -0.000001
vn -0.0000 0.0000 -1.0000
usemtl None
s off
f 158//201 159//201 157//201
f 158//201 160//201 159//201
