# Blender v2.79 (sub 0) OBJ File: 'my_scene.blend'
# www.blender.org
mtllib cube_CUBES.mtl
o Cube.003_Cube.002
v 4.000000 2.000000 -2.000000
v 4.000000 4.000000 -2.000000
v 4.000000 2.000000 -4.000000
v 4.000000 4.000000 -4.000000
v 6.000000 2.000000 -2.000000
v 6.000000 4.000000 -2.000000
v 6.000000 2.000000 -4.000000
v 6.000000 4.000000 -4.000000
vn -0.5773 0.5773 0.5773
vn -0.5773 -0.5773 -0.5773
vn -0.5773 -0.5773 0.5773
vn -0.5773 0.5773 -0.5773
vn 0.5773 -0.5773 -0.5773
vn 0.5773 0.5773 -0.5773
vn 0.5773 -0.5773 0.5773
vn 0.5773 0.5773 0.5773
usemtl None
s 1
f 2//1 3//2 1//3
f 4//4 7//5 3//2
f 8//6 5//7 7//5
f 6//8 1//3 5//7
f 7//5 1//3 3//2
f 4//4 6//8 8//6
f 2//1 4//4 3//2
f 4//4 8//6 7//5
f 8//6 6//8 5//7
f 6//8 2//1 1//3
f 7//5 5//7 1//3
f 4//4 2//1 6//8
o Cube.002_Cube
v 0.494431 0.000000 1.386218
v 0.494431 2.000000 1.386218
v 0.494431 0.000000 -0.613782
v 0.494431 2.000000 -0.613782
v 2.494431 0.000000 1.386218
v 2.494431 2.000000 1.386218
v 2.494431 0.000000 -0.613782
v 2.494431 2.000000 -0.613782
vn -0.5773 0.5773 0.5773
vn -0.5773 -0.5773 -0.5773
vn -0.5773 -0.5773 0.5773
vn -0.5773 0.5773 -0.5773
vn 0.5773 -0.5773 -0.5773
vn 0.5773 0.5773 -0.5773
vn 0.5773 -0.5773 0.5773
vn 0.5773 0.5773 0.5773
usemtl None
s 1
f 10//9 11//10 9//11
f 12//12 15//13 11//10
f 16//14 13//15 15//13
f 14//16 9//11 13//15
f 15//13 9//11 11//10
f 12//12 14//16 16//14
f 10//9 12//12 11//10
f 12//12 16//14 15//13
f 16//14 14//16 13//15
f 14//16 10//9 9//11
f 15//13 13//15 9//11
f 12//12 10//9 14//16
o Cube_Cube.001
v -5.000000 0.500000 -0.982268
v -5.000000 3.500000 -0.982268
v -5.000000 0.500000 -2.982268
v -5.000000 3.500000 -2.982268
v -3.000000 0.500000 -0.982268
v -3.000000 3.500000 -0.982268
v -3.000000 0.500000 -2.982268
v -3.000000 3.500000 -2.982268
vn -0.5773 0.5773 0.5773
vn -0.5773 -0.5773 -0.5773
vn -0.5773 -0.5773 0.5773
vn -0.5773 0.5773 -0.5773
vn 0.5773 -0.5773 -0.5773
vn 0.5773 0.5773 -0.5773
vn 0.5773 -0.5773 0.5773
vn 0.5773 0.5773 0.5773
usemtl None
s 1
f 18//17 19//18 17//19
f 20//20 23//21 19//18
f 24//22 21//23 23//21
f 22//24 17//19 21//23
f 23//21 17//19 19//18
f 20//20 22//24 24//22
f 18//17 20//20 19//18
f 20//20 24//22 23//21
f 24//22 22//24 21//23
f 22//24 18//17 17//19
f 23//21 21//23 17//19
f 20//20 18//17 22//24
