# Blender v2.79 (sub 0) OBJ File: ''
# www.blender.org
mtllib scene_2_cone.mtl
o Cone
v 6.090308 -0.329506 1.440500
v 6.285398 -0.329506 1.459715
v 6.472991 -0.329506 1.516621
v 6.645878 -0.329506 1.609030
v 6.797414 -0.329506 1.733393
v 6.921777 -0.329506 1.884930
v 7.014187 -0.329506 2.057817
v 7.071093 -0.329506 2.245410
v 7.090308 -0.329506 2.440500
v 7.071093 -0.329506 2.635590
v 7.014187 -0.329506 2.823183
v 6.921777 -0.329506 2.996070
v 6.797414 -0.329506 3.147607
v 6.645878 -0.329506 3.271970
v 6.472991 -0.329506 3.364380
v 6.285398 -0.329506 3.421285
v 6.090307 -0.329506 3.440500
v 5.895217 -0.329506 3.421285
v 5.707624 -0.329506 3.364379
v 5.534737 -0.329506 3.271969
v 5.383201 -0.329506 3.147606
v 5.258838 -0.329506 2.996070
v 5.166428 -0.329506 2.823183
v 6.090308 1.670494 2.440500
v 5.109522 -0.329506 2.635590
v 5.090308 -0.329506 2.440499
v 5.109523 -0.329506 2.245409
v 5.166429 -0.329506 2.057816
v 5.258839 -0.329506 1.884929
v 5.383202 -0.329506 1.733392
v 5.534739 -0.329506 1.609030
v 5.707625 -0.329506 1.516620
v 5.895219 -0.329506 1.459714
vn 0.0000 -0.5033 -0.8641
vn 0.0000 1.0000 0.0000
vn 0.1686 -0.5033 -0.8475
vn 0.3307 -0.5033 -0.7983
vn 0.4801 -0.5033 -0.7185
vn 0.6110 -0.5033 -0.6110
vn 0.7185 -0.5033 -0.4801
vn 0.7983 -0.5033 -0.3307
vn 0.8475 -0.5033 -0.1686
vn 0.8641 -0.5033 0.0000
vn 0.8475 -0.5033 0.1686
vn 0.7983 -0.5033 0.3307
vn 0.7185 -0.5033 0.4801
vn 0.6110 -0.5033 0.6110
vn 0.4801 -0.5033 0.7185
vn 0.3307 -0.5033 0.7983
vn 0.1686 -0.5033 0.8475
vn 0.0000 -0.5033 0.8641
vn -0.1686 -0.5033 0.8475
vn -0.3307 -0.5033 0.7983
vn -0.4801 -0.5033 0.7185
vn -0.6110 -0.5033 0.6110
vn -0.7185 -0.5033 0.4801
vn -0.7983 -0.5033 0.3307
vn -0.8475 -0.5033 0.1686
vn -0.8641 -0.5033 0.0000
vn -0.8475 -0.5033 -0.1686
vn -0.7983 -0.5033 -0.3307
vn -0.7185 -0.5033 -0.4801
vn -0.6110 -0.5033 -0.6110
vn -0.4801 -0.5033 -0.7185
vn -0.3307 -0.5033 -0.7983
vn -0.1686 -0.5033 -0.8475
usemtl None
s 1
f 1//1 24//2 2//3
f 2//3 24//2 3//4
f 3//4 24//2 4//5
f 4//5 24//2 5//6
f 5//6 24//2 6//7
f 6//7 24//2 7//8
f 7//8 24//2 8//9
f 8//9 24//2 9//10
f 9//10 24//2 10//11
f 10//11 24//2 11//12
f 11//12 24//2 12//13
f 12//13 24//2 13//14
f 13//14 24//2 14//15
f 14//15 24//2 15//16
f 15//16 24//2 16//17
f 16//17 24//2 17//18
f 17//18 24//2 18//19
f 18//19 24//2 19//20
f 19//20 24//2 20//21
f 20//21 24//2 21//22
f 21//22 24//2 22//23
f 22//23 24//2 23//24
f 23//24 24//2 25//25
f 25//25 24//2 26//26
f 26//26 24//2 27//27
f 27//27 24//2 28//28
f 28//28 24//2 29//29
f 29//29 24//2 30//30
f 30//30 24//2 31//31
f 31//31 24//2 32//32
f 32//32 24//2 33//33
f 33//33 24//2 1//1
f 8//9 16//17 25//25
f 33//33 1//1 2//3
f 2//3 3//4 4//5
f 4//5 5//6 6//7
f 6//7 7//8 4//5
f 7//8 8//9 4//5
f 8//9 9//10 10//11
f 10//11 11//12 8//9
f 11//12 12//13 8//9
f 12//13 13//14 16//17
f 13//14 14//15 16//17
f 14//15 15//16 16//17
f 16//17 17//18 18//19
f 18//19 19//20 20//21
f 20//21 21//22 22//23
f 22//23 23//24 25//25
f 25//25 26//26 27//27
f 27//27 28//28 29//29
f 29//29 30//30 33//33
f 30//30 31//31 33//33
f 31//31 32//32 33//33
f 33//33 2//3 4//5
f 16//17 18//19 25//25
f 18//19 20//21 25//25
f 20//21 22//23 25//25
f 25//25 27//27 33//33
f 27//27 29//29 33//33
f 33//33 4//5 8//9
f 8//9 12//13 16//17
f 33//33 8//9 25//25
o Plane
v -7.570452 0.000000 7.570452
v 7.570452 0.000000 7.570452
v -7.570452 0.000000 -7.570452
v 7.570452 0.000000 -7.570452
vn 0.0000 1.0000 0.0000
usemtl None
s 1
f 35//34 36//34 34//34
f 35//34 37//34 36//34
